<svg id="Layer_35" enable-background="new 0 0 64 64" height="512" viewBox="0 0 64 64" width="512" xmlns="http://www.w3.org/2000/svg"><path d="m31 43.05c.329-.033.662-.05 1-.05s.671.018 1 .05v-4.05h-2z"/><path d="m52 26v9.05c.329-.033.662-.05 1-.05s.671.018 1 .05v-9.05c0-2.757-2.243-5-5-5h-2.859c-.244.686-.54 1.354-.885 2h3.744c1.654 0 3 1.346 3 3z"/><path d="m10 26v9.05c.329-.033.662-.05 1-.05s.671.018 1 .05v-9.05c0-1.654 1.346-3 3-3h3.756c-.344-.646-.636-1.314-.88-2h-2.876c-2.757 0-5 2.243-5 5z"/><path d="m32 57c-1.896 0-3.667.9-4.792 2.391 1.338 1.005 2.994 1.609 4.792 1.609s3.454-.604 4.792-1.609c-1.125-1.491-2.896-2.391-4.792-2.391z"/><circle cx="32" cy="52" r="3"/><path d="m32 45c-4.411 0-8 3.589-8 8 0 1.893.664 3.633 1.768 5.004.792-.986 1.796-1.763 2.931-2.278-1.034-.917-1.699-2.239-1.699-3.726 0-2.757 2.243-5 5-5s5 2.243 5 5c0 1.487-.665 2.809-1.699 3.726 1.135.516 2.139 1.293 2.931 2.278 1.104-1.371 1.768-3.111 1.768-5.004 0-4.411-3.589-8-8-8z"/><path d="m53 49c-1.896 0-3.667.9-4.792 2.391 1.338 1.005 2.994 1.609 4.792 1.609s3.454-.604 4.792-1.609c-1.125-1.491-2.896-2.391-4.792-2.391z"/><circle cx="53" cy="44" r="3"/><path d="m53 37c-4.411 0-8 3.589-8 8 0 1.893.664 3.633 1.768 5.004.792-.986 1.796-1.763 2.931-2.278-1.034-.917-1.699-2.239-1.699-3.726 0-2.757 2.243-5 5-5s5 2.243 5 5c0 1.487-.665 2.809-1.699 3.726 1.135.516 2.139 1.293 2.931 2.278 1.104-1.371 1.768-3.111 1.768-5.004 0-4.411-3.589-8-8-8z"/><circle cx="11" cy="44" r="3"/><path d="m11 37c-4.411 0-8 3.589-8 8 0 1.893.664 3.633 1.768 5.004.792-.986 1.796-1.763 2.931-2.278-1.034-.917-1.699-2.239-1.699-3.726 0-2.757 2.243-5 5-5s5 2.243 5 5c0 1.487-.665 2.809-1.699 3.726 1.135.516 2.139 1.293 2.931 2.278 1.104-1.371 1.768-3.111 1.768-5.004 0-4.411-3.589-8-8-8z"/><path d="m11 49c-1.896 0-3.667.9-4.792 2.391 1.338 1.005 2.994 1.609 4.792 1.609s3.454-.604 4.792-1.609c-1.125-1.491-2.896-2.391-4.792-2.391z"/><path d="m37.899 33h-11.798c.465 2.279 2.484 4 4.899 4h2c2.414 0 4.434-1.721 4.899-4z"/><path d="m41 29h-18c-.551 0-1 .448-1 1s.449 1 1 1h18c.551 0 1-.448 1-1s-.449-1-1-1z"/><path d="m23.323 25.629c.222.199.431.41.668.596.293.23.549.495.786.775h3.376l1.269-7.613c-2.925.882-5.274 3.22-6.099 6.242z"/><path d="m40.667 6.31c-2.792-2.498-6.398-3.645-10.16-3.226-5.922.657-10.723 5.43-11.415 11.348-.408 3.49.576 6.883 2.668 9.551 1.16-2.948 3.549-5.24 6.48-6.314-1.364-1.101-2.24-2.784-2.24-4.669 0-3.309 2.691-6 6-6s6 2.691 6 6c0 1.885-.876 3.568-2.24 4.669 2.93 1.074 5.319 3.365 6.479 6.313 1.773-2.255 2.761-5.033 2.761-7.982 0-3.693-1.58-7.226-4.333-9.69zm2.284 8.645-1.991.188c-.056-.597-.173-1.189-.347-1.763l1.914-.58c.212.7.355 1.426.424 2.155zm-4.039-4.719 1.534-1.283c.469.561.884 1.173 1.233 1.817l-1.759.953c-.285-.528-.625-1.029-1.008-1.487zm3.584 9.064-1.908-.6c.179-.568.301-1.16.364-1.759l1.989.207c-.076.733-.226 1.456-.445 2.152z"/><path d="m31.51 19.022-1.33 7.978h3.639l-1.33-7.978c-.162-.009-.324-.022-.489-.022s-.327.013-.49.022z"/><path d="m39.211 27c.215-.262.437-.497.682-.686.277-.212.53-.446.787-.676-.822-3.026-3.173-5.368-6.101-6.251l1.268 7.613z"/><circle cx="32" cy="13" r="4"/><path d="m63 8c0-1.654-1.346-3-3-3s-3 1.346-3 3c0 1.302.839 2.402 2 2.816v3.184c0 1.654-1.346 3-3 3h-9.041c-.044.677-.137 1.344-.271 2h9.312c2.757 0 5-2.243 5-5v-3.184c1.161-.414 2-1.514 2-2.816z"/><path d="m50 15c2.757 0 5-2.243 5-5v-3.184c1.161-.414 2-1.514 2-2.816 0-1.654-1.346-3-3-3s-3 1.346-3 3c0 1.302.839 2.402 2 2.816v3.184c0 1.654-1.346 3-3 3h-3.311c.134.657.212 1.326.258 2z"/><path d="m9 6.816v3.184c0 2.757 2.243 5 5 5h3.051c.017-.267.023-.533.055-.801.047-.405.114-.804.194-1.199h-3.3c-1.654 0-3-1.346-3-3v-3.184c1.161-.414 2-1.514 2-2.816 0-1.654-1.346-3-3-3s-3 1.346-3 3c0 1.302.839 2.402 2 2.816z"/><path d="m3 14c0 2.757 2.243 5 5 5h9.318c-.135-.658-.232-1.324-.277-2h-9.041c-1.654 0-3-1.346-3-3v-3.184c1.161-.414 2-1.514 2-2.816 0-1.654-1.346-3-3-3s-3 1.346-3 3c0 1.302.839 2.402 2 2.816z"/></svg>