<svg height="491pt" viewBox="0 1 491 491.99544" width="491pt" xmlns="http://www.w3.org/2000/svg"><path d="m460.335938 278.234375c-24.242188-9.949219-52.097657-.203125-64.851563 22.691406l-23.136719-9.523437c10.609375-29.527344 10.546875-61.835938-.179687-91.320313l23.082031-9.613281c13.371094 23.921875 43.078125 33.265625 67.734375 21.308594 24.65625-11.960938 35.710937-41.070313 25.207031-66.382813-10.507812-25.308593-38.929687-38.039062-64.808594-29.019531-25.875 9.019531-40.234374 36.652344-32.734374 63.011719l-23.097657 9.621093c-13.4375-28.335937-36.308593-51.117187-64.699219-64.4375l9.527344-23.140624c19.070313 5.367187 39.535156-.636719 52.675782-15.464844 13.144531-14.824219 16.652343-35.859375 9.035156-54.148438-8.707032-20.910156-30.011719-33.714844-52.5625-31.589844-22.550782 2.128907-41.085938 18.6875-45.730469 40.855469s5.6875 44.777344 25.488281 55.777344l-9.527344 23.132813c-29.527343-10.605469-61.835937-10.542969-91.320312.183593l-9.617188-23.09375c23.957032-13.421875 33.292969-43.203125 21.28125-67.902343-12.011718-24.695313-41.203124-35.742188-66.554687-25.179688-25.351563 10.558594-38.070313 39.058594-28.996094 64.980469s36.789063 40.269531 63.191407 32.714843l9.621093 23.101563c-28.335937 13.433594-51.117187 36.308594-64.4375 64.699219l-23.140625-9.527344c7.371094-26.320312-7.054687-53.820312-32.894531-62.714844-25.84375-8.894531-54.140625 3.90625-64.523437 29.1875-10.382813 25.28125.746093 54.273438 25.378906 66.113282 24.636718 11.835937 54.226562 2.414062 67.480468-21.488282l23.121094 9.519532c-10.605468 29.527343-10.542968 61.835937.183594 91.320312l-23.09375 9.617188c-13.390625-23.875-43.078125-33.167969-67.695312-21.191407-24.613282 11.980469-35.617188 41.078125-25.089844 66.347657 10.53125 25.269531 38.9375 37.949218 64.777344 28.90625 25.839843-9.039063 40.144531-36.664063 32.621093-62.984376l23.101563-9.621093c13.4375 28.335937 36.308594 51.113281 64.699218 64.433593l-9.527343 23.144532c-26.355469-7.414063-53.917969 7.007812-62.851563 32.886718-8.933594 25.875 3.859375 54.230469 29.171875 64.65625 25.316407 10.425782 54.367188-.699218 66.246094-25.363281 11.878906-24.664062 2.464844-54.316406-21.46875-67.609375l9.519531-23.136718c29.527344 10.609374 61.835938 10.546874 91.320313-.179688l9.617187 23.09375c-23.875 13.390625-33.167968 43.078125-21.191406 67.691406 11.980469 24.617188 41.078125 35.621094 66.347656 25.09375 25.269532-10.53125 37.949219-38.9375 28.90625-64.777344-9.039062-25.839843-36.664062-40.148437-62.984375-32.625l-9.621093-23.097656c28.335937-13.4375 51.113281-36.308594 64.433593-64.699218l23.144531 9.527343c-7.519531 26.722657 7.417969 54.613281 33.832032 63.164063 26.410156 8.550781 54.859375-5.296875 64.425781-31.355469 9.566406-26.0625-3.164063-55.027344-28.835937-65.597656zm-131.84375-8.382813c-10.859376-.015624-20.347657-7.351562-23.09375-17.859374h-44.5625l31.53125 31.535156c10.351562-6.078125 23.609374-3.519532 30.953124 5.976562 7.34375 9.5 6.488282 22.972656-2.003906 31.460938-8.488281 8.488281-21.964844 9.347656-31.460937 2-9.496094-7.34375-12.054688-20.601563-5.972657-30.953125l-31.535156-31.53125v44.5625c11.621094 3.023437 19.1875 14.207031 17.667969 26.117187-1.523437 11.910156-11.660156 20.832032-23.667969 20.832032-12.003906 0-22.140625-8.921876-23.664062-20.832032-1.519532-11.910156 6.046875-23.09375 17.664062-26.117187v-44.5625l-31.53125 31.53125c6.082032 10.351562 3.523438 23.613281-5.976562 30.957031-9.496094 7.34375-22.972656 6.488281-31.464844-2.003906-8.488281-8.488282-9.347656-21.964844-2-31.460938 7.34375-9.5 20.601562-12.058594 30.957031-5.976562l31.53125-31.535156h-44.566406c-3.019531 11.621093-14.203125 19.1875-26.113281 17.667968-11.910156-1.523437-20.832032-11.660156-20.832032-23.667968 0-12.003907 8.921876-22.140626 20.832032-23.664063 11.910156-1.519531 23.09375 6.046875 26.113281 17.664063h44.566406l-31.53125-31.53125c-10.355469 6.082031-23.613281 3.523437-30.957031-5.976563-7.347656-9.496094-6.488281-22.972656 2-31.464844 8.492188-8.488281 21.96875-9.347656 31.464844-2 9.5 7.34375 12.058594 20.601563 5.976562 30.957031l31.53125 31.53125v-44.566406c-11.617187-3.019531-19.183594-14.203125-17.664062-26.113281 1.523437-11.910156 11.660156-20.832031 23.664062-20.832031 12.007813 0 22.144532 8.921875 23.667969 20.832031 1.519531 11.910156-6.046875 23.09375-17.667969 26.113281v44.566406l31.535156-31.53125c-6.09375-10.367187-3.535156-23.644531 5.976563-31 9.507813-7.359374 23.003906-6.5 31.503906 2 8.503907 8.503907 9.359375 22 2.003907 31.507813-7.355469 9.511719-20.632813 12.070313-31 5.976563l-31.53125 31.53125h44.5625c3.117187-11.992188 14.902343-19.605469 27.117187-17.515626 12.214844 2.089844 20.796875 13.1875 19.75 25.535157-1.050781 12.347656-11.378906 21.839843-23.773437 21.839843zm0 0"/><path d="m234.492188 328.136719c0 6.546875 5.308593 11.855469 11.855468 11.855469 6.550782 0 11.859375-5.308594 11.859375-11.855469s-5.308593-11.855469-11.859375-11.855469c-6.542968.003906-11.847656 5.308594-11.855468 11.855469zm0 0"/><path d="m188.265625 292.226562c-5.652344.003907-10.519531 4-11.617187 9.542969-1.101563 5.546875 1.867187 11.097657 7.09375 13.261719 5.222656 2.160156 11.246093.328125 14.386718-4.371094 3.140625-4.703125 2.519532-10.96875-1.480468-14.964844-2.222657-2.226562-5.238282-3.472656-8.382813-3.46875zm0 0"/><path d="m164.207031 234.136719c-6.550781 0-11.859375 5.308593-11.859375 11.855469 0 6.550781 5.308594 11.859374 11.859375 11.859374 6.546875 0 11.855469-5.308593 11.855469-11.859374-.007812-6.542969-5.3125-11.847657-11.855469-11.855469zm0 0"/><path d="m312.816406 196.292969c4.632813-4.628907 4.632813-12.136719 0-16.765625-4.628906-4.632813-12.136718-4.632813-16.765625 0-4.632812 4.628906-4.632812 12.136718 0 16.765625 2.210938 2.246093 5.230469 3.507812 8.382813 3.507812s6.171875-1.261719 8.382812-3.507812zm0 0"/><path d="m188.265625 176.054688c-5.65625-.003907-10.527344 3.992187-11.628906 9.539062-1.105469 5.550781 1.863281 11.105469 7.089843 13.269531 5.226563 2.164063 11.253907.335938 14.398438-4.367187 3.140625-4.703125 2.523438-10.96875-1.476562-14.96875-2.21875-2.230469-5.234376-3.484375-8.382813-3.472656zm0 0"/><path d="m258.207031 163.851562c0-6.550781-5.308593-11.859374-11.859375-11.859374-6.546875 0-11.855468 5.308593-11.855468 11.859374 0 6.546876 5.308593 11.855469 11.855468 11.855469 6.546875-.007812 11.851563-5.3125 11.859375-11.855469zm0 0"/><path d="m304.433594 315.933594c5.65625 0 10.523437-3.992188 11.628906-9.542969 1.105469-5.546875-1.863281-11.101563-7.089844-13.265625-5.226562-2.167969-11.253906-.339844-14.398437 4.363281-3.140625 4.703125-2.523438 10.972657 1.476562 14.972657 2.21875 2.230468 5.234375 3.480468 8.382813 3.472656zm0 0"/><path d="m328.492188 234.136719c-6.546876 0-11.855469 5.308593-11.855469 11.855469 0 6.550781 5.308593 11.859374 11.855469 11.859374 6.546874 0 11.855468-5.308593 11.855468-11.859374-.003906-6.542969-5.308594-11.847657-11.855468-11.855469zm0 0"/></svg>