<svg id="Capa_1" enable-background="new 0 0 512 512" height="512" viewBox="0 0 512 512" width="512" xmlns="http://www.w3.org/2000/svg"><g><path d="m482 201h-181.732c17.597-18.112 34.732-44.991 34.732-81 0-35.445 8.214-46.562 15.371-52.287 10.99-8.792 31.231-12.713 65.629-12.713 8.284 0 15-6.716 15-15s-6.716-15-15-15c-42.803 0-67.247 5.588-84.371 19.287-23.602 18.882-26.629 50.381-26.629 75.713 0 46.583-41.523 74.289-52.895 81h-222.105c-16.542 0-30 13.458-30 30v226c0 16.542 13.458 30 30 30h452c16.542 0 30-13.458 30-30v-226c0-16.542-13.458-30-30-30zm-162 64h16c8.284 0 15 6.716 15 15s-6.716 15-15 15h-16c-8.284 0-15-6.716-15-15s6.716-15 15-15zm-40 64h16c8.284 0 15 6.716 15 15s-6.716 15-15 15h-16c-8.284 0-15-6.716-15-15s6.716-15 15-15zm-40-64h16c8.284 0 15 6.716 15 15s-6.716 15-15 15h-16c-8.284 0-15-6.716-15-15s6.716-15 15-15zm-24 64c8.284 0 15 6.716 15 15s-6.716 15-15 15h-16c-8.284 0-15-6.716-15-15s6.716-15 15-15zm-56-64h16c8.284 0 15 6.716 15 15s-6.716 15-15 15h-16c-8.284 0-15-6.716-15-15s6.716-15 15-15zm-80 0h16c8.284 0 15 6.716 15 15s-6.716 15-15 15h-16c-8.284 0-15-6.716-15-15s6.716-15 15-15zm16 158h-16c-8.284 0-15-6.716-15-15s6.716-15 15-15h16c8.284 0 15 6.716 15 15s-6.716 15-15 15zm24-64c-8.284 0-15-6.716-15-15s6.716-15 15-15h16c8.284 0 15 6.716 15 15s-6.716 15-15 15zm232 64h-192c-8.284 0-15-6.716-15-15s6.716-15 15-15h192c8.284 0 15 6.716 15 15s-6.716 15-15 15zm24-64h-16c-8.284 0-15-6.716-15-15s6.716-15 15-15h16c8.284 0 15 6.716 15 15s-6.716 15-15 15zm9-79c0-8.284 6.716-15 15-15h16c8.284 0 15 6.716 15 15s-6.716 15-15 15h-16c-8.284 0-15-6.716-15-15zm47 143h-16c-8.284 0-15-6.716-15-15s6.716-15 15-15h16c8.284 0 15 6.716 15 15s-6.716 15-15 15z"/></g></svg>