<?xml version="1.0" encoding="UTF-8"?>
<svg width="22px" height="21px" viewBox="0 0 22 21" version="1.1" xmlns="http://www.w3.org/2000/svg" xmlns:xlink="http://www.w3.org/1999/xlink">
    <!-- Generator: Sketch 51 (57462) - http://www.bohemiancoding.com/sketch -->
    <title>Shape</title>
    <desc>Created with Sketch.</desc>
    <defs></defs>
    <g id="File-Types-Icons" stroke="none" stroke-width="1" fill="none" fill-rule="evenodd">
        <g id="Assets" transform="translate(-144.000000, -103.000000)">
            <rect x="0" y="0" width="1048" height="527"></rect>
            <g id="Icon-PDF" transform="translate(131.000000, 90.000000)" stroke="#DB5565" stroke-width="1.57">
                <path d="M24.1448959,14.2620525 C24.5658959,14.4450525 24.4718959,14.7220525 24.3328959,16.0240525 C24.1898959,17.3730525 23.7148959,19.8300525 22.7978959,22.2420525 C21.8798959,24.6570525 20.5178959,27.0270525 19.3308959,28.7840525 C18.1458959,30.5390525 17.1298959,31.6800525 16.3568959,32.3380525 C15.5798959,32.9960525 15.0428959,33.1710525 14.6918959,33.2310525 C14.3438959,33.2910525 14.1858959,33.2310525 14.0918959,33.0560525 C13.9978959,32.8810525 13.9648959,32.5860525 14.0458959,32.2370525 C14.1248959,31.8840525 14.3138959,31.4740525 14.8498959,30.9500525 C15.3908959,30.4230525 16.2758959,29.7800525 17.5108959,29.1780525 C18.7458959,28.5790525 20.3268959,28.0220525 21.6258959,27.6430525 C22.9248959,27.2620525 23.9368959,27.0580525 24.8228959,26.8980525 C25.7108959,26.7370525 26.4698959,26.6200525 27.2128959,26.5620525 C27.9578959,26.5020525 28.6868959,26.5020525 29.3988959,26.5620525 C30.1108959,26.6200525 30.8078959,26.7370525 31.4098959,26.8810525 C32.0108959,27.0280525 32.5178959,27.2040525 32.9608959,27.4830525 C33.4028959,27.7600525 33.7838959,28.1410525 33.9728959,28.5650525 C34.1648959,28.9900525 34.1648959,29.4580525 34.0058959,29.7940525 C33.8478959,30.1300525 33.5298959,30.3360525 33.1668959,30.4510525 C32.8038959,30.5680525 32.3918959,30.5970525 31.9008959,30.4510525 C31.4098959,30.3050525 30.8378959,29.9840525 30.2378959,29.5580525 C29.6378959,29.1350525 29.0038959,28.6100525 28.1808959,27.7900525 C27.3578959,26.9700525 26.3438959,25.8560525 25.4898959,24.7750525 C24.6358959,23.6920525 23.9368959,22.6390525 23.4618959,21.7470525 C22.9888959,20.8540525 22.7348959,20.1230525 22.5288959,19.3900525 C22.3228959,18.6590525 22.1648959,17.9280525 22.1018959,17.2700525 C22.0388959,16.6100525 22.0688959,16.0250525 22.1328959,15.5600525 C22.1958959,15.0900525 22.2928959,14.7400525 22.4498959,14.5060525 C22.6078959,14.2710525 22.8308959,14.1540525 22.9888959,14.0960525 C23.1468959,14.0360525 23.2428959,14.0360525 23.3368959,14.0230525 C23.4308959,14.0090525 23.5248959,13.9790525 23.6698959,14.0230525 C23.8078959,14.0630525 23.9918959,14.1750525 24.1448959,14.2620525 L24.1448959,14.2620525 Z" id="Shape"></path>
            </g>
        </g>
    </g>
</svg>