<?xml version="1.0" encoding="UTF-8"?>
<svg width="49px" height="48px" viewBox="0 0 49 48" version="1.1" xmlns="http://www.w3.org/2000/svg" xmlns:xlink="http://www.w3.org/1999/xlink">
    <!-- Generator: Sketch 51 (57462) - http://www.bohemiancoding.com/sketch -->
    <title>4</title>
    <desc>Created with Sketch.</desc>
    <defs></defs>
    <g id="Page-1" stroke="none" stroke-width="1" fill="none" fill-rule="evenodd">
        <g id="file-type-icons" transform="translate(-429.000000, -274.000000)">
            <rect x="0" y="0" width="800" height="600"></rect>
            <g id="4" transform="translate(428.900000, 273.800000)" fill="#A66DF5" fill-rule="nonzero">
                <path d="M46.1619792,5.97168403 L46.1619792,42.297309 C46.1619792,44.1070095 44.6813151,45.5876736 42.8716146,45.5876736 L5.7278125,45.5876736 C3.91811198,45.5876736 2.43744792,44.1070095 2.43744792,42.297309 L2.43744792,5.97168403 C2.43744792,4.16198351 3.91811198,2.68131944 5.7278125,2.68131944 L42.8716146,2.68131944 C44.6813151,2.68131944 46.1619792,4.16198351 46.1619792,5.97168403 Z M5.7278125,0.487743056 C2.70067708,0.487743056 0.243871528,2.94454861 0.243871528,5.97168403 L0.243871528,42.297309 C0.243871528,45.3244444 2.70067708,47.78125 5.7278125,47.78125 L42.8716146,47.78125 C45.89875,47.78125 48.3555556,45.3244444 48.3555556,42.297309 L48.3555556,5.97168403 C48.3555556,2.94454861 45.89875,0.487743056 42.8716146,0.487743056 L5.7278125,0.487743056 Z" id="Shape"></path>
                <path d="M36.9406291,34.9802172 L11.6103206,34.9802172 C11.0594906,34.9802172 10.6030887,34.5316843 10.6030887,33.9729853 L10.6030887,31.2267046 C10.6030887,31.0142416 10.6660407,30.8175167 10.7840757,30.6443987 L14.2936493,25.6869292 C14.6084093,25.2462652 15.2064532,25.1360992 15.6628552,25.4272522 L20.4472067,28.5512449 C20.8327877,28.8030529 21.3206656,28.7637079 21.6669016,28.4646859 L30.8578927,20.3438787 C31.2906876,19.9582977 31.9674216,20.0212497 32.3136575,20.4855207 L37.530804,27.25286 C37.664577,27.425978 37.743267,27.64631 37.743267,27.8666419 L37.743267,34.1775793 C37.743267,34.6182433 37.381293,34.9802172 36.9406291,34.9802172 Z M20.8091807,17.58186 C22.6347885,17.58186 24.1141603,19.0769698 24.1141603,20.9183156 C24.1141603,22.7596615 22.6347885,24.2547713 20.8091807,24.2547713 C18.9835728,24.2547713 17.504201,22.7596615 17.504201,20.9183156 C17.51207,19.0769698 18.9914418,17.58186 20.8091807,17.58186 Z" id="Combined-Shape"></path>
            </g>
        </g>
    </g>
</svg>