<svg id="Capa_1" enable-background="new 0 0 511.148 511.148" height="512" viewBox="0 0 511.148 511.148" width="512" xmlns="http://www.w3.org/2000/svg"><g id="XMLID_104_"><path id="XMLID_115_" d="m100.146 421.407v38.174c0 27.658 22.502 50.16 50.16 50.16h211.344c27.658 0 50.159-22.502 50.159-50.16v-38.174zm155.832 23c8.409 0 14.636 6.873 15 15 .363 8.101-7.154 15-15 15-8.409 0-14.636-6.873-15-15-.363-8.1 7.154-15 15-15z"/><path id="XMLID_116_" d="m337.022 177.202v-152.811h66.754c-8.943-13.815-24.479-22.983-42.126-22.983h-211.343c-27.658 0-50.16 22.502-50.16 50.16v50.748h111.165v217.616h-111.166v71.476h311.664v-30.89h-74.787v-152.812h74.787v-30.504z"/><path id="XMLID_120_" d="m367.022 54.391v92.811h89.587l17.625 16.341 21.101-16.341h15.813v-92.811z"/><path id="XMLID_129_" d="m367.022 237.706v92.812h89.587l17.625 16.34 21.101-16.34h15.813v-92.812z"/><path id="XMLID_136_" d="m181.312 289.932v-157.617h-181.312v157.617h20.423l26.674 20.657 22.28-20.657z"/></g></svg>