<svg height="512pt" viewBox="-61 0 512 512" width="512pt" xmlns="http://www.w3.org/2000/svg"><path d="m300 90h-210v-60h62.5625c6.199219-17.460938 22.882812-30 42.4375-30s36.238281 12.539062 42.4375 30h62.5625zm0 0"/><path d="m111.050781 364.738281-10.605469 31.816407 31.816407-10.605469 112.894531-112.878907-21.226562-21.226562zm0 0"/><path d="m245.140625 230.632812 21.226563 21.226563 27.421874-27.4375-21.210937-21.210937zm0 0"/><path d="m330 30v90h-270v-90h-60v482h390v-482zm-181.539062 382.171875-95.449219 31.816406 31.816406-95.449219 187.75-187.75 63.632813 63.632813zm0 0"/></svg>